<?xml version="1.0" encoding="utf-8"?>
<!-- Generator: Adobe Illustrator 27.0.0, SVG Export Plug-In . SVG Version: 6.00 Build 0)  -->
<svg version="1.1" id="Layer_1" xmlns="http://www.w3.org/2000/svg" xmlns:xlink="http://www.w3.org/1999/xlink" x="0px" y="0px"
	 viewBox="-29.85 -43.27 374.99 404.14" style="enable-background:new -29.85 -43.27 374.99 404.14;" xml:space="preserve">
<style type="text/css">
	.st0{fill:none;stroke:#FCB316;stroke-width:3;stroke-miterlimit:10;}
</style>
<g>
	<path class="st0" d="M328.1,334.8c-1.7-5.5-2.5-12.1,0.8-17.2c1.8-2.8,4.7-4.7,7.6-6.2c6.6-3.4,14-5.3,21.4-5.5
		c0.4,0,0.9,0,1.1,0.4c0.1,0.3,0,0.6-0.1,0.9c-1.1,2.5-2.8,4.8-3.5,7.4c-0.9,3.1-0.5,6.3-0.6,9.5c-0.1,4.9-3.1,9.6-7.4,11.8
		c-3.9,2-8.6,1.3-12.8,1.3"/>
	<path class="st0" d="M324.9,342.5c3.8-9.4,8.5-19.8,17.8-24.9"/>
</g>
</svg>
